<?xml version="1.0" encoding="utf-8"?>
<!-- Generator: Adobe Illustrator 22.0.0, SVG Export Plug-In . SVG Version: 6.00 Build 0)  -->
<svg version="1.1" id="Layer_1" xmlns="http://www.w3.org/2000/svg" xmlns:xlink="http://www.w3.org/1999/xlink" x="0px" y="0px"
	 viewBox="0 0 370 57.1" style="enable-background:new 0 0 370 57.1;" xml:space="preserve">
<style type="text/css">
	.st0{fill:#E7A723;}
	.st1{fill:#E41D38;}
	.st2{fill:#231F20;}
</style>
<g>
	<path class="st0" d="M50.3,18.3l-2.1,0.1l2.2-1.4c0.2-0.1,0.4-0.5,0.2-0.7c-0.1-0.2-0.5-0.4-0.7-0.1l-2,1.3l0.8-1.8
		c0.1-0.2,0-0.5-0.2-0.6c-0.2-0.1-0.5,0-0.6,0.2l-1.4,2.9L45.5,19l0.9-2c0.1-0.2,0-0.5-0.2-0.6c-0.2-0.1-0.5,0-0.6,0.2L44,19.9
		l-1.2,0.7l1.1-2.2c0.1-0.2,0-0.6-0.2-0.7c-0.2-0.1-0.6,0-0.7,0.2l-1.8,3.7l-1.5,0.6l0,0c-0.1,0.1-1.1,0.7-2,2.6
		c-0.9,1.9-1.9,5.2-1.9,10.4c0,0.7,0,1.5,0.1,2.3c-0.5,0.2-1.1,0.5-1.5,0.6c0-0.1,0-0.2,0-0.4c0-7,0.9-11.5,1.9-14.2
		c0.5-1.3,0.9-2.2,1.3-2.8c0.1-0.2,0.4-0.5,0.5-0.6l0.1-0.1l0,0l0,0l0.5-0.7l4.3-2.3c0.2-0.1,0.4-0.5,0.2-0.7
		c-0.1-0.2-0.5-0.4-0.7-0.2l-2.6,1.4l0.7-1.2l3.7-2c0.2-0.1,0.4-0.5,0.2-0.7c-0.1-0.2-0.5-0.4-0.7-0.2l-2.2,1.2l0.7-1.1l3.2-1.8
		c0.2,0.1,0.2-0.1,0.1-0.4s-0.4-0.2-0.6-0.1l-1.9,1.1l1.4-2.2c0.1-0.2,0.1-0.6-0.1-0.7c-0.2-0.1-0.6-0.1-0.7,0.1l0,0l-1.3,2V9.7
		c0-0.2-0.2-0.5-0.5-0.5c-0.2,0-0.5,0.2-0.5,0.5V13l-0.7,1.1v-2.2c0-0.2-0.2-0.5-0.5-0.5c-0.2,0-0.5,0.2-0.5,0.5v3.6l-0.7,1.2v-2.5
		c0-0.2-0.2-0.6-0.6-0.5c-0.4,0-0.6,0.2-0.6,0.6v4.1l-0.8,1.3c-0.5,0.5-4.1,4.8-4.1,18.4c0,0.2,0,0.5,0,0.7
		c-0.6,0.2-1.2,0.4-1.8,0.5c0-0.6,0-1.2,0-1.8c0-7.4,0.8-12.5,1.6-15.8c0.5-1.6,0.8-2.8,1.2-3.6c0.1-0.4,0.2-0.7,0.4-0.8l0.1-0.2
		l0,0l0,0l0.7-1.8l3.7-2.6c0.2-0.1,0.4-0.5,0.1-0.7c-0.1-0.2-0.5-0.4-0.7-0.1L36,13.6l0.2-0.7l3.5-3c0.2-0.1,0.2-0.5,0-0.7
		c-0.1-0.2-0.5-0.2-0.7,0l-1.9,1.4l0.5-1.2l2.9-2.6c0.2-0.1,0.2-0.5,0-0.6C40.5,6,40.1,6,40,6.2l-1.8,1.5l0.9-2.6
		c0.1-0.2,0-0.6-0.4-0.7c-0.2-0.1-0.6,0-0.7,0.4l-0.6,2L37.2,5c0-0.2-0.2-0.4-0.5-0.4c-0.2,0-0.4,0.2-0.4,0.5l0.7,3l-0.5,1.2
		l-0.5-1.9c0-0.2-0.4-0.5-0.6-0.4c-0.2,0-0.5,0.4-0.4,0.6l0.7,3.3l-0.7,1.8L35,10.3c0-0.2-0.2-0.5-0.6-0.5c-0.2,0-0.5,0.2-0.5,0.6
		l0.5,4.6l-0.5,1.3c-0.2,0.4-3.4,6.6-3.4,21.1c0,0.7,0,1.3,0,2c-0.6,0.1-1.2,0.2-1.8,0.2c0.1-6.9,0.5-12.8,0.9-17.1
		c0.2-2.5,0.5-4.3,0.7-5.7c0.1-0.7,0.1-1.2,0.2-1.5c0-0.4,0.1-0.5,0.1-0.5l0.4-2.1L34,9c0.2-0.2,0.1-0.6-0.1-0.7
		c-0.2-0.2-0.6-0.1-0.7,0.1l-1.8,2.2l0.2-1.3l2.6-3.2c0.1-0.2,0.1-0.5-0.1-0.7c-0.2-0.1-0.5-0.1-0.7,0.1l0,0l-1.5,1.9l0.2-1.2
		l2.2-2.8c0.1-0.2,0.1-0.5-0.1-0.6c-0.2-0.1-0.5-0.1-0.6,0.1l-1.3,1.6L32.9,2c0-0.2-0.1-0.6-0.5-0.6c-0.2,0-0.6,0.1-0.6,0.5l0,0
		l-0.4,2.3l-0.8-1.9C30.5,2.1,30.3,2,30,2.1c-0.2,0.1-0.4,0.4-0.2,0.6l1.3,3L31,7L30,4.9c-0.1-0.2-0.4-0.4-0.6-0.2
		c-0.2,0.1-0.4,0.4-0.2,0.6l1.5,3.5l-0.2,1.4l-1.1-2.3c-0.1-0.2-0.5-0.4-0.7-0.2c-0.2,0.1-0.4,0.5-0.2,0.7l1.6,4l-0.4,2.5
		c0,0-1.8,10.1-2,25.1c-0.6,0-1.3,0.1-1.9,0.1V11.6l2.3-3.7c0-0.4-0.1-0.7-0.4-0.8s-0.6-0.1-0.7,0.1l-1.4,2.3V8.1l2-3.3
		c0.1-0.2,0.1-0.5-0.1-0.7C27.5,4,27.2,4,27,4.2l-1.2,2V4.9l1.8-2.8c0.1-0.2,0.1-0.5-0.1-0.6c-0.2-0.1-0.5-0.1-0.6,0.1l-1.1,1.8V0.9
		c0-0.4-0.2-0.6-0.6-0.6c-0.4,0-0.6,0.2-0.6,0.6v2.6l-1.1-1.8c-0.1-0.2-0.4-0.2-0.6-0.1c-0.2,0.1-0.2,0.4-0.1,0.6l1.8,3v1.2
		l-1.2-2.1C23.4,4.1,23,4,22.8,4.2c-0.2,0.1-0.4,0.5-0.1,0.7l2,3.5v1.3l-1.4-2.5C23.1,7,22.8,6.9,22.5,7c-0.2,0.1-0.4,0.5-0.2,0.7
		l2.3,4v28c-0.6,0-1.2,0-1.8-0.1c-0.2-14.9-2-24.9-2-25.1l-0.5-2.5l1.8-3.9c0.1-0.2,0-0.6-0.2-0.7s-0.6,0-0.7,0.2l-1.1,2.3L20,8.8
		l1.4-3.5c0.1-0.2,0-0.5-0.2-0.6s-0.5,0-0.6,0.2L19.7,7l-0.2-1.3l1.3-3c0.1-0.2,0-0.5-0.2-0.6s-0.5,0-0.6,0.2l-0.7,1.8l-0.4-2.3
		c0-0.2-0.4-0.5-0.6-0.5c-0.2,0-0.5,0.4-0.5,0.6l0.5,2.6L17,2.8c-0.1-0.2-0.5-0.2-0.6-0.1c-0.2,0.1-0.2,0.5-0.1,0.6l0,0l2.2,2.8
		l0.2,1.2l-1.5-1.9c-0.1-0.2-0.5-0.2-0.7-0.1S16.2,6,16.5,6.1L19,9.4l0.2,1.3l-1.9-2.2c-0.2-0.2-0.5-0.2-0.7-0.1
		c-0.2,0.2-0.2,0.5-0.1,0.7l3,3.6l0.4,2.1c0,0,0,0.2,0.1,0.5c0.4,2.2,1.8,11.4,1.9,24.2c-0.6-0.1-1.2-0.1-1.8-0.2c0-0.7,0-1.3,0-2
		c0-14.5-3.3-20.7-3.4-21.1l-0.5-1.3l0.5-4.6c0-0.2-0.2-0.6-0.5-0.6s-0.6,0.2-0.6,0.5l-0.2,2.5l-0.7-1.8l0.7-3.3
		c0-0.2-0.1-0.5-0.4-0.6c-0.2,0-0.5,0.1-0.6,0.4l-0.5,2l-0.5-1.2l0.7-3c0-0.2-0.1-0.5-0.4-0.5S13.5,4.8,13.5,5l-0.4,1.8l-0.8-2.1
		c-0.1-0.2-0.5-0.4-0.7-0.4c-0.4,0.2-0.5,0.5-0.4,0.8l0.9,2.6l-1.6-1.5c-0.2-0.1-0.5-0.1-0.6,0c-0.1,0.2-0.1,0.5,0,0.6l2.9,2.6
		l0.5,1.2l-2.1-1.9c-0.2-0.1-0.5-0.1-0.7,0.1c-0.1,0.1-0.1,0.5,0.1,0.6l3.5,3l0.2,0.7L12,11.4c-0.2-0.1-0.6,0-0.7,0.2
		c-0.1,0.2-0.1,0.6,0.1,0.7l3.7,2.6l0.7,1.8l0,0l0,0c0.4,0.7,3.3,6.8,3.3,20.5c0,0.6,0,1.2,0,1.8c-0.6-0.1-1.2-0.4-1.8-0.5
		c0-0.2,0-0.5,0-0.6c0-13.6-3.6-17.8-4.1-18.4l-0.8-1.3v-4.1c0-0.4-0.2-0.6-0.6-0.6s-0.6,0.2-0.6,0.6v2.5l-0.7-1.2v-3.6
		c0-0.2-0.2-0.5-0.5-0.5s-0.5,0.2-0.5,0.5v2.2L9,12.9V9.6c0-0.2-0.2-0.5-0.5-0.5c0,0.1-0.2,0.4-0.2,0.6v1.9L7,9.6
		C6.9,9.4,6.5,9.3,6.3,9.5C6,9.6,5.9,10,6.2,10.2l1.4,2.2l-2-1.1c-0.2-0.1-0.5,0-0.6,0.2s0,0.5,0.2,0.6l3.2,1.8L9.1,15l-2.2-1.2
		c-0.2-0.1-0.5,0-0.7,0.2c-0.1,0.2,0,0.5,0.2,0.7l3.7,2l0.7,1.2l-2.6-1.6c-0.2-0.1-0.6,0-0.7,0.2c-0.1,0.2,0,0.6,0.2,0.7l4.3,2.3
		l0.5,0.7l0,0l0,0c0.1,0.1,3.9,4,3.9,17.7c0,0.1,0,0.2,0,0.4c-0.6-0.2-1.1-0.4-1.5-0.6c0-0.8,0-1.6,0-2.3c0-5.3-0.9-8.5-1.9-10.4
		c-0.9-1.9-2-2.6-2-2.6l0,0l-1.3-0.8l-1.9-3.7c-0.1-0.2-0.5-0.4-0.7-0.2C7,17.7,6.9,18,7,18.3L8,20.5l-1.2-0.7l-1.6-3.3
		c-0.1-0.2-0.4-0.4-0.6-0.2c-0.2,0.1-0.4,0.4-0.2,0.6l0.9,2l-1.1-0.7l-1.4-2.9C2.8,15,2.5,14.9,2.3,15s-0.4,0.4-0.2,0.6l0.8,1.8
		l-2-1.3c-0.2-0.1-0.6-0.1-0.7,0.2c-0.1,0.4-0.1,0.6,0.1,0.8l2.2,1.4l-2.1-0.1c-0.2,0-0.5,0.2-0.5,0.5c0,0.2,0.2,0.5,0.5,0.5L4,19.4
		L5.1,20l-2.6-0.1c-0.2,0-0.5,0.2-0.5,0.5c0,0.2,0.2,0.5,0.5,0.5L6.7,21l1.2,0.7l-3-0.1c-0.4,0-0.6,0.2-0.6,0.5
		c0,0.4,0.2,0.6,0.5,0.6l4.9,0.1l0.7,0.5l0,0l0,0c0,0,0.8,0.5,1.6,2.3c0.8,1.8,1.6,4.8,1.6,9.8c0,0.6,0,1.2,0,1.9
		c-0.1,0-0.2-0.1-0.2-0.1L13.3,37l0,0c-0.2-0.1-0.6,0-0.7,0.2c-0.1,0.2,0,0.6,0.2,0.7l0,0c0,0,0.4,0.2,0.9,0.5
		c0,0.7-0.1,1.5-0.1,2.2c0,0-0.1,0-0.1-0.1l-0.1-0.1l0,0c-0.2-0.1-0.6,0-0.7,0.2c-0.1,0.2,0,0.6,0.2,0.7l0,0c0,0,0.2,0.1,0.8,0.4
		l0,0c-0.1,1.3-0.9,6.6-3.7,11.1c-0.1,0.2-0.1,0.6,0.1,0.7c0.2,0.1,0.6,0.1,0.7-0.1c2.8-4.4,3.6-9.5,3.9-11.2
		c0.5,0.2,1.1,0.4,1.8,0.6c0,0.2-0.1,0.5-0.1,0.8c-0.4,2.5-1.3,7.7-2.9,10.7c-0.1,0.2,0,0.6,0.2,0.7c0.2,0.1,0.6,0,0.7-0.2
		c1.2-2.1,2-5.3,2.5-7.8c0.4-1.6,0.6-3,0.7-3.9c0.6,0.1,1.2,0.4,1.8,0.5c0,0.2,0,0.5,0,0.9c-0.1,2.2-0.6,7.3-2.1,10.5
		c-0.1,0.2,0,0.6,0.2,0.7c0.2,0.1,0.6,0,0.7-0.2c1.1-2.3,1.6-5.4,2-7.8c0.2-1.8,0.2-3.2,0.4-3.9c0.6,0.1,1.2,0.2,1.9,0.2l0,0
		c0,0,0,0.2,0,0.7c0,1.9-0.1,6.9-1.9,11.1c-0.1,0.2,0,0.6,0.4,0.7c0.2,0.1,0.6,0,0.7-0.4c1.8-4.4,1.9-9.6,1.9-11.6
		c0-0.2,0-0.5,0-0.6c0.6,0,1.2,0.1,1.8,0.1v12.3c0,0.2,0.2,0.6,0.6,0.6c0.4,0,0.6-0.2,0.6-0.6V44c0.6,0,1.2,0,1.9-0.1
		c0,0.1,0,0.4,0,0.6c0,1.9,0.2,7,1.9,11.6c0.1,0.2,0.5,0.4,0.7,0.4c0.2-0.1,0.4-0.5,0.4-0.7c-1.6-4.2-1.9-9.4-1.9-11.1
		c0-0.5,0-0.7,0-0.7c0.6-0.1,1.3-0.1,1.9-0.4c0,0.7,0.1,2.1,0.4,3.9c0.4,2.5,0.8,5.5,2,7.8c0.1,0.2,0.5,0.4,0.7,0.2
		c0.2-0.1,0.4-0.5,0.2-0.7c-1.1-2.1-1.6-5.2-1.9-7.5c-0.1-1.2-0.2-2.2-0.2-3c0-0.4,0-0.7,0-0.9c0.6-0.1,1.2-0.4,1.8-0.5
		c0.1,0.8,0.4,2.2,0.7,3.9c0.5,2.6,1.3,5.6,2.5,7.8c0.1,0.2,0.5,0.4,0.7,0.2c0.2-0.1,0.4-0.5,0.2-0.7c-1.1-2-1.9-5-2.3-7.5
		c-0.2-1.3-0.5-2.3-0.6-3.2c0-0.4-0.1-0.6-0.1-0.8c0.6-0.2,1.2-0.5,1.8-0.7c0.2,1.6,1.1,6.7,3.9,11.2c0.1,0.2,0.5,0.4,0.7,0.1
		c0.2-0.1,0.4-0.5,0.1-0.7c-1.6-2.6-2.6-5.4-3.2-7.6c-0.2-1.1-0.5-2-0.6-2.7c0-0.4-0.1-0.6-0.1-0.8v-0.1c0.2-0.1,0.4-0.1,0.6-0.2
		c0.2-0.1,0.4-0.5,0.2-0.7c-0.1-0.2-0.5-0.4-0.7-0.2c-0.1,0-0.1,0.1-0.2,0.1c-0.1-0.7-0.1-1.4-0.1-2.1c0.4-0.1,0.7-0.4,0.9-0.5
		c0.2-0.1,0.4-0.5,0.2-0.7c-0.1-0.2-0.5-0.4-0.7-0.2c-0.2,0.1-0.4,0.1-0.6,0.2c0-0.7,0-1.3,0-1.9c0-5.2,0.9-8.2,1.8-10
		c0.5-0.8,0.8-1.4,1.2-1.8c0.1-0.1,0.2-0.2,0.4-0.4l0.1-0.1l0,0l0.7-0.5l4.9-0.2c0.4,0,0.5-0.2,0.5-0.6c0-0.2-0.2-0.5-0.6-0.5
		l-3,0.1l1.2-0.7l4.2-0.1c0.2,0,0.5-0.2,0.5-0.5c0-0.2-0.2-0.5-0.5-0.5l-2.9,0.4l1.1-0.6l3.6-0.1c0.2,0,0.5-0.2,0.5-0.5
		C50.6,18.5,50.5,18.3,50.3,18.3z M33.3,39.7c0,0.7,0,1.5,0.1,2.2c-0.6,0.2-1.2,0.4-1.8,0.5c0-0.8-0.1-1.5-0.1-2.3
		C32.1,40.1,32.7,39.8,33.3,39.7z M30.5,40.4c0,0.7,0.1,1.5,0.1,2.3c-0.6,0.1-1.3,0.2-1.9,0.4c0-0.1,0-0.4,0-0.5c0-0.6,0-1.3,0-1.9
		C29.3,40.5,29.9,40.5,30.5,40.4z M22,40.6c0,0.6,0,1.3,0,1.9c0,0.1,0,0.4,0,0.5c-0.6-0.1-1.3-0.2-1.9-0.2c0-0.8,0.1-1.6,0.1-2.3
		C20.8,40.4,21.4,40.5,22,40.6z M19.2,40.1c0,0.8,0,1.5-0.1,2.3c-0.6-0.1-1.2-0.4-1.8-0.5c0-0.8,0.1-1.6,0.1-2.3
		C18,39.8,18.6,39.9,19.2,40.1z M16.3,39.4c0,0.7,0,1.5-0.1,2.3c-0.7-0.2-1.2-0.5-1.6-0.6c0.1-0.8,0.1-1.5,0.2-2.3
		C15.3,39,15.8,39.1,16.3,39.4z M23,43.1c0-0.2,0-0.4,0-0.6c0-0.6,0-1.2,0-1.8c0.6,0,1.2,0.1,1.8,0.1v2.3
		C24.2,43.2,23.6,43.1,23,43.1z M25.8,40.9c0.6,0,1.3,0,1.9-0.1c0,0.6,0,1.2,0,1.8c0,0.2,0,0.5,0,0.6c-0.6,0-1.3,0.1-1.9,0.1V40.9z
		 M36.1,41c-0.6,0.2-1.2,0.5-1.6,0.7c0-0.8-0.1-1.5-0.1-2.2c0.5-0.2,1.1-0.4,1.5-0.6C36,39.5,36.1,40.2,36.1,41z"/>
	<g>
		<path class="st1" d="M57,18.2h10.5L72.1,34l4.8-14.6h8.7l5,14.6l4.6-15.8h10.4L95.4,49.9h-8.8l-5.4-15l-5.3,15h-8.8L57,18.2z"/>
		<path class="st1" d="M105.6,18.2h9.8v11.1c1.5-2,3.9-3.7,7.1-3.7c4.9,0,8.1,3.3,8.1,8.5v15.6h-9.8V37.2c0-2-1.2-3.2-2.7-3.2
			s-2.8,1.2-2.8,3.2v12.4h-9.8L105.6,18.2z"/>
		<path class="st1" d="M132.5,37.9L132.5,37.9c0-7.1,5-12.5,12.1-12.5c8.3,0,12.3,5.9,12.3,13c0,0.5,0,1.2,0,1.6h-15.1
			c0.7,2.1,2.3,3.2,4.4,3.2c1.8,0,3.3-0.8,4.8-2.5l5.3,4.2c-2.3,3-5.6,5.2-10.8,5.2C137.6,50.1,132.5,45.2,132.5,37.9z M147.9,35.7
			c-0.2-2.2-1.5-3.5-3.3-3.5c-1.6,0-2.8,1.4-3,3.5H147.9z"/>
		<path class="st1" d="M157.1,42.9L157.1,42.9c0-4.8,3.5-7.4,9-7.5c2,0,4.6,0.5,5.6,0.8v-0.4c0-2.1-1.3-3.4-4.3-3.4
			c-2.5,0-4.4,0.5-6.6,1.4l-1.8-6.6c2.7-1.1,5.9-1.8,10-1.8c4.8,0,7.8,0.9,10,3c1.8,1.8,2.5,4.1,2.5,7.5v13.5h-9.8v-2.3
			c-1.6,1.8-3.9,2.9-6.8,2.9C160.2,50.1,157.1,47.5,157.1,42.9z M171.7,40.8v-0.9c-0.6-0.2-1.4-0.4-2.2-0.4c-2,0-3,1.2-3,2.7v0.1
			c0,1.4,1.1,2.3,2.2,2.3C170.4,44.4,171.7,43.1,171.7,40.8z"/>
		<path class="st1" d="M185.3,41.6v-8.1h-2.8V26h2.8v-5.9h9.8V26h5.4v7.5h-5.4v6c0,1.8,0.8,2.5,2.3,2.5c0.9,0,2-0.2,2.9-0.7v7.5
			c-1.5,0.8-3.9,1.3-6.2,1.3C188.5,50,185.3,47.3,185.3,41.6z"/>
		<path class="st1" d="M202.9,17.9h9.8v31.5h-9.8V17.9z"/>
		<path class="st1" d="M214.6,42.7L214.6,42.7c0-4.8,3.5-7.4,9-7.5c2,0,4.6,0.5,5.6,0.8v-0.4c0-2.1-1.3-3.4-4.3-3.4
			c-2.5,0-4.4,0.5-6.6,1.4l-1.8-6.6c2.7-1.1,5.9-1.8,10-1.8c4.8,0,7.8,0.9,10,3c1.8,1.8,2.5,4.1,2.5,7.5v13.5h-9.8v-2.3
			c-1.6,1.8-3.9,2.9-6.8,2.9C217.7,50,214.6,47.4,214.6,42.7z M229.2,40.8v-0.9c-0.6-0.2-1.4-0.4-2.2-0.4c-2,0-3,1.2-3,2.7v0.1
			c0,1.4,1.1,2.3,2.2,2.3C227.9,44.4,229.2,43,229.2,40.8z"/>
		<path class="st1" d="M241.6,25.9h9.8v3.3c1.5-2,3.9-3.9,7.1-3.9c4.9,0,8.1,3.3,8.1,8.5v15.6h-9.8V37c0-2-1.2-3.2-2.7-3.2
			c-1.5,0-2.8,1.2-2.8,3.2v12.4h-9.8L241.6,25.9z"/>
		<path class="st1" d="M268.5,37.7L268.5,37.7c0-7.5,4.4-12.5,10.1-12.5c3.6,0,5.6,1.5,7,3.3V17.8h9.8v31.5h-9.8v-2.9
			c-1.6,1.8-3.4,3.5-7,3.5C273,49.9,268.5,45,268.5,37.7z M285.9,37.6L285.9,37.6c0-2.5-1.6-4.3-4-4.3c-2.2,0-4,1.9-3.9,4.2v0.1
			c0,2.3,1.6,4.2,4,4.2C284.2,41.8,285.9,39.9,285.9,37.6z"/>
		<path class="st2" d="M310.2,29.2h-7.6l0.6-2.3h17.7l-0.6,2.3h-7.6l-5.3,20h-2.6L310.2,29.2z"/>
		<path class="st2" d="M316.2,44.5c0-0.8,0.2-1.6,0.5-2.6l2.5-9.2h2.5l-2.5,9.4c-0.1,0.6-0.2,1.3-0.2,1.9c0,2.2,1.4,3.5,3.7,3.5
			c2.6,0,5.2-2.2,6-5.4l2.5-9.4h2.5L329,49.2h-2.5l0.7-2.7c-1.5,1.8-3.3,3-5.9,3C318.3,49.5,316.2,47.5,316.2,44.5z"/>
		<path class="st2" d="M336.7,45.4l-0.9,3.7h-2.5l6.2-23.4h2.5l-2.6,9.7c1.6-1.8,3.6-3.2,6.3-3.2c3.7,0,6.6,2.8,6.6,7
			c0,5.9-4.4,10.3-9.2,10.3C339.5,49.5,337.6,47.7,336.7,45.4z M349.6,39.5c0-3-1.9-5-4.7-5c-3.6,0-7.4,3.7-7.4,7.8
			c0,2.9,2.1,5.2,5.2,5.2C346.6,47.4,349.6,43.7,349.6,39.5z"/>
		<path class="st2" d="M356.6,42.4c0,3,1.9,5,5,5c2.1,0,3.6-0.7,5-2l1.3,1.6c-1.6,1.4-3.6,2.5-6.6,2.5c-4.3,0-7.4-2.8-7.4-7
			c0-5,4.1-10.3,9.6-10.3c4.2,0,6.4,2.9,6.4,6.3c0,1.2-0.2,2.2-0.6,3.2h-13C356.6,41.9,356.6,42.2,356.6,42.4z M367.6,39.8
			c0.1-0.2,0.1-0.7,0.1-1.3c0-2.2-1.3-4.2-4.1-4.2c-3.3,0-5.7,2.5-6.7,5.5H367.6z"/>
	</g>
</g>
</svg>
